<svg width="104" height="40" viewBox="0 0 104 40" xmlns="http://www.w3.org/2000/svg"
     xmlns:xlink="http://www.w3.org/1999/xlink">
    <g transform="translate(0 0)">
        <rect width="104" height="40" rx="8" transform="translate(0 0)" fill="#5865f2"></rect>
        <text transform="translate(31 25)" fill="white" font-size="14" font-family="Avenir,Helvetica,Arial,sans-serif">
            <tspan x="7" y="0">Discord</tspan>
        </text>
    </g>
    <g transform="translate(12 8)">
        <rect width="24" height="24" fill="#ffffff" opacity="0"></rect>
        <g transform="matrix(0.38 0 0 0.38 12 12)">
            <g style="">
                <g transform="matrix(1 0 0 1 0 1)">
                    <path
                            style="stroke: none; stroke-width: 1; stroke-dasharray: none; stroke-linecap: butt; stroke-dashoffset: 0; stroke-linejoin: miter; stroke-miterlimit: 4; fill: rgb(0,0,0); fill-rule: nonzero; opacity: 1;"
                            transform=" translate(-24, -25)"
                            d="M 40.461 12.184 C 40.449 12.162999999999998 40.436 12.141 40.422 12.12 C 39.775999999999996 11.148 38.86 10.404 37.772999999999996 9.968 C 35.446 9.034 33.437999999999995 8.409 31.635999999999996 8.055 C 30.354999999999997 7.805 29.076999999999995 8.434 28.476999999999997 9.62 L 28.342999999999996 9.878 C 27.028999999999996 9.734 25.624999999999996 9.687 24.022 9.726 C 22.381999999999998 9.687000000000001 20.974999999999998 9.735000000000001 19.656 9.878 L 19.528 9.629 C 18.923 8.434 17.645999999999997 7.805 16.365 8.055 C 14.560999999999998 8.408999999999999 12.552999999999999 9.033999999999999 10.221999999999998 9.968 C 9.134999999999998 10.405 8.219999999999999 11.152 7.576999999999998 12.126 C 3.637999999999998 18.072 1.807999999999998 24.430999999999997 2.0169999999999986 31.485 C 1.9749999999999985 33.092 2.0369999999999986 34.734 2.2149999999999985 36.417 C 2.2469999999999986 36.722 2.4159999999999986 36.995000000000005 2.6749999999999985 37.158 C 6.068999999999999 39.301 9.136999999999999 40.83 12.046999999999999 41.832 C 13.303999999999998 42.274 14.697999999999999 41.787 15.439999999999998 40.651 L 16.959999999999997 38.324000000000005 C 19.211 38.946000000000005 21.563999999999997 39.28600000000001 23.993999999999996 39.336000000000006 C 26.369999999999997 39.287000000000006 28.713999999999995 38.946000000000005 30.971999999999994 38.321000000000005 L 32.56399999999999 40.693000000000005 C 33.123999999999995 41.52400000000001 34.047999999999995 41.998000000000005 35.001999999999995 41.998000000000005 C 35.312 41.998000000000005 35.623999999999995 41.94800000000001 35.928 41.845000000000006 C 38.885 40.825 41.870999999999995 39.336000000000006 45.324999999999996 37.15800000000001 C 45.583999999999996 36.99500000000001 45.754 36.72100000000001 45.785999999999994 36.41700000000001 C 45.962999999999994 34.73500000000001 46.025999999999996 33.095000000000006 45.983999999999995 31.488000000000007 C 46.191 24.455 44.375 18.113 40.461 12.184 z"
                            stroke-linecap="round"></path>
                </g>
                <g transform="matrix(1 0 0 1 0 0)">
                    <path
                            style="stroke: none; stroke-width: 1; stroke-dasharray: none; stroke-linecap: butt; stroke-dashoffset: 0; stroke-linejoin: miter; stroke-miterlimit: 4; fill: rgb(255,255,255); fill-rule: nonzero; opacity: 1;"
                            transform=" translate(-24, -24)"
                            d="M 33.397 38.104 C 33.887 38.853 34.796 39.178 35.620999999999995 38.888 C 38.79899999999999 37.794 41.833 36.18 44.791 34.311 C 45.565999999999995 26.972 44.266 19.737000000000002 39.589 12.677 C 39.059 11.873 38.3 11.253 37.405 10.892999999999999 C 35.361000000000004 10.073999999999998 33.357 9.408999999999999 31.443 9.033999999999999 C 30.608 8.869 29.764000000000003 9.289 29.364 10.078 L 28.914 10.952 C 27.64 10.777 26.121000000000002 10.672 24.002000000000002 10.722 C 21.878000000000004 10.671999999999999 20.359 10.777 19.090000000000003 10.952 L 18.635000000000005 10.078 C 18.235000000000007 9.289 17.391000000000005 8.869 16.556000000000004 9.033999999999999 C 14.647000000000004 9.408999999999999 12.643000000000004 10.072999999999999 10.599000000000004 10.892999999999999 C 9.704000000000004 11.252999999999998 8.945000000000004 11.866999999999999 8.410000000000004 12.671999999999999 L 8.410000000000004 12.677 C 3.733000000000004 19.737 2.4330000000000034 26.971 3.2080000000000037 34.311 C 6.171000000000004 36.18 9.210000000000004 37.798 12.398000000000003 38.897999999999996 C 13.218000000000004 39.178 14.112000000000004 38.867999999999995 14.607000000000003 38.13399999999999 L 16.606 35.15599999999999 C 18.91 35.85999999999999 21.368000000000002 36.279999999999994 24.027 36.334999999999994 C 26.686 36.279999999999994 29.174 35.85999999999999 31.473 35.15599999999999 L 33.397 38.104 z"
                            stroke-linecap="round"></path>
                </g>
                <g transform="matrix(1 0 0 1 0 0)">
                    <path
                            style="stroke: none; stroke-width: 1; stroke-dasharray: none; stroke-linecap: butt; stroke-dashoffset: 0; stroke-linejoin: miter; stroke-miterlimit: 4; fill: rgb(0,0,0); fill-rule: nonzero; opacity: 1;"
                            transform=" translate(-24, -24)"
                            d="M 12.999 39.998 C 12.690000000000001 39.998 12.379000000000001 39.948 12.077 39.845 C 9.116 38.824 6.13 37.335 2.676 35.157 C 2.4170000000000003 34.994 2.2470000000000003 34.72 2.2150000000000003 34.416 C 1.348 26.198 3.089 18.925 7.54 12.183 C 7.552 12.161999999999999 7.564 12.14 7.578 12.12 C 8.224 11.148 9.14 10.404 10.226 9.968 C 12.554 9.034 14.562000000000001 8.409 16.364 8.055 C 17.645 7.803999999999999 18.922 8.434 19.527 9.629 L 19.657 9.878 C 20.974 9.734 22.386 9.688 24.026 9.726 C 25.627 9.687000000000001 27.026 9.736 28.344 9.878 L 28.474 9.624 C 29.078 8.435 30.354 7.804 31.635 8.055 C 33.439 8.408999999999999 35.447 9.033999999999999 37.777 9.968 C 38.865 10.405 39.78 11.152 40.423 12.129 C 44.900000000000006 18.884999999999998 46.654 26.177 45.784 34.417 C 45.752 34.722 45.583 34.995000000000005 45.324 35.158 C 41.93 37.301 38.861999999999995 38.83 35.945 39.834 C 34.696 40.274 33.3 39.788000000000004 32.559 38.651 L 31.038999999999998 36.324000000000005 C 28.787999999999997 36.946000000000005 26.439 37.28600000000001 24.046 37.336000000000006 C 21.633 37.287000000000006 19.285 36.946000000000005 17.027 36.321000000000005 L 15.435 38.69200000000001 C 14.878 39.523 13.952 39.998 12.999 39.998 z M 4.155 33.725 C 7.301 35.677 10.035 37.026 12.725000000000001 37.954 C 13.109000000000002 38.083 13.536000000000001 37.935 13.777000000000001 37.576 L 15.776000000000002 34.599000000000004 C 16.022000000000002 34.234 16.476000000000003 34.068000000000005 16.898000000000003 34.201 C 19.231 34.914 21.570000000000004 35.285000000000004 24.047000000000004 35.336 C 26.473000000000006 35.285 28.887000000000004 34.903 31.180000000000003 34.201 C 31.604000000000003 34.072 32.067 34.237 32.31 34.61 L 34.234 37.557 C 34.235 37.557 34.235 37.557 34.235 37.558 C 34.471 37.92 34.903999999999996 38.081 35.289 37.945 C 37.947 37.03 40.748000000000005 35.649 43.845 33.725 C 44.546 26.163 42.879 19.454 38.754999999999995 13.231000000000002 C 38.334999999999994 12.593000000000002 37.739999999999995 12.107000000000001 37.032 11.823000000000002 C 34.821999999999996 10.937000000000003 32.92999999999999 10.346000000000002 31.250999999999998 10.017000000000003 C 30.854999999999997 9.940000000000003 30.452999999999996 10.146000000000003 30.255999999999997 10.533000000000003 L 29.804999999999996 11.412000000000003 C 29.611999999999995 11.790000000000003 29.201999999999995 12.009000000000002 28.779999999999998 11.945000000000002 C 27.363999999999997 11.753000000000002 25.854999999999997 11.680000000000001 24.028 11.725000000000001 C 22.148 11.679000000000002 20.637 11.751000000000001 19.226999999999997 11.945000000000002 C 18.805999999999997 12.009000000000002 18.397999999999996 11.791000000000002 18.202999999999996 11.416000000000002 L 17.748999999999995 10.542000000000002 C 17.548999999999996 10.146 17.151999999999994 9.940000000000001 16.749999999999996 10.018 C 15.071999999999996 10.347000000000001 13.182999999999996 10.938 10.972999999999995 11.824000000000002 C 10.283999999999995 12.101 9.698999999999995 12.569 9.279999999999996 13.178 C 9.268999999999997 13.197000000000001 9.258999999999995 13.214 9.246999999999996 13.233 C 5.121 19.453 3.454 26.162 4.155 33.725 z"
                            stroke-linecap="round"></path>
                </g>
                <g transform="matrix(1 0 0 1 -0.02 11.06)">
                    <path
                            style="stroke: none; stroke-width: 1; stroke-dasharray: none; stroke-linecap: butt; stroke-dashoffset: 0; stroke-linejoin: miter; stroke-miterlimit: 4; fill: rgb(0,0,0); fill-rule: nonzero; opacity: 1;"
                            transform=" translate(-23.98, -35.06)"
                            d="M 34.73 33.248 C 34.455999999999996 32.769 33.845 32.599999999999994 33.366 32.876 C 27.619999999999997 36.156 20.338 36.153999999999996 14.594000000000001 32.876 C 14.111 32.599999999999994 13.503000000000002 32.769 13.23 33.248 C 12.956 33.727 13.123000000000001 34.339 13.602 34.611999999999995 C 16.777 36.42399999999999 20.367 37.382999999999996 23.983 37.382999999999996 C 27.597 37.382999999999996 31.185000000000002 36.425 34.359 34.611999999999995 C 34.838 34.339 35.005 33.728 34.73 33.248 z"
                            stroke-linecap="round"></path>
                </g>
                <g transform="matrix(1 0 0 1 -6.5 0)">
                    <path
                            style="stroke: none; stroke-width: 1; stroke-dasharray: none; stroke-linecap: butt; stroke-dashoffset: 0; stroke-linejoin: miter; stroke-miterlimit: 4; fill: rgb(0,0,0); fill-rule: nonzero; opacity: 1;"
                            transform=" translate(-17.5, -24)"
                            d="M 17.5 20 C 15.579 20 14 21.808 14 24 C 14 26.192 15.579 28 17.5 28 C 19.421 28 21 26.192 21 24 C 21 21.808 19.421 20 17.5 20 z"
                            stroke-linecap="round"></path>
                </g>
                <g transform="matrix(1 0 0 1 6.5 0)">
                    <path
                            style="stroke: none; stroke-width: 1; stroke-dasharray: none; stroke-linecap: butt; stroke-dashoffset: 0; stroke-linejoin: miter; stroke-miterlimit: 4; fill: rgb(0,0,0); fill-rule: nonzero; opacity: 1;"
                            transform=" translate(-30.5, -24)"
                            d="M 27 24 C 27 26.192 28.579 28 30.5 28 C 32.421 28 34 26.192 34 24 C 34 21.808 32.421 20 30.5 20 C 28.579 20 27 21.808 27 24 z"
                            stroke-linecap="round"></path>
                </g>
            </g>
        </g>
    </g>
</svg>