<svg width="114" height="40" viewBox="0 0 114 40" xmlns="http://www.w3.org/2000/svg"
     xmlns:xlink="http://www.w3.org/1999/xlink">
    <g transform="translate(0 0)">
        <rect width="114" height="40" rx="8" transform="translate(0 0)" fill="#0088cc"></rect>
        <text transform="translate(31 25)" fill="white" font-size="14" font-family="Avenir,Helvetica,Arial,sans-serif">
            <tspan x="7" y="0">Telegram</tspan>
        </text>
    </g>
    <g transform="translate(12 8)">
        <rect width="24" height="24" fill="#ffffff" opacity="0"></rect>
        <g transform="matrix(0.38 0 0 0.38 12 12)">
            <g style="">
                <g transform="matrix(1 0 0 1 0 0)">
                    <path
                            style="stroke: none; stroke-width: 1; stroke-dasharray: none; stroke-linecap: butt; stroke-dashoffset: 0; stroke-linejoin: miter; stroke-miterlimit: 4; fill: rgb(41,182,246); fill-rule: nonzero; opacity: 1;"
                            transform=" translate(-24, -24)"
                            d="M 24 4 C 13 4 4 13 4 24 C 4 35 13 44 24 44 C 35 44 44 35 44 24 C 44 13 35 4 24 4 z"
                            stroke-linecap="round"></path>
                </g>
                <g transform="matrix(1 0 0 1 -2 0.5)">
                    <path
                            style="stroke: none; stroke-width: 1; stroke-dasharray: none; stroke-linecap: butt; stroke-dashoffset: 0; stroke-linejoin: miter; stroke-miterlimit: 4; fill: rgb(255,255,255); fill-rule: nonzero; opacity: 1;"
                            transform=" translate(-22, -24.5)"
                            d="M 34 15 L 30.3 34.1 C 30.3 34.1 30.1 35 29.1 35 C 28.5 35 28.200000000000003 34.7 28.200000000000003 34.7 L 20 28 L 16 26 L 10.9 24.6 C 10.9 24.6 10 24.3 10 23.6 C 10 23 10.9 22.700000000000003 10.9 22.700000000000003 L 32.2 14.200000000000003 C 32.2 14.200000000000003 32.900000000000006 14.000000000000004 33.300000000000004 14.000000000000004 C 33.6 14.000000000000004 33.900000000000006 14.100000000000003 33.900000000000006 14.500000000000004 C 34 14.8 34 15 34 15 z"
                            stroke-linecap="round"></path>
                </g>
                <g transform="matrix(1 0 0 1 -2.95 7)">
                    <path
                            style="stroke: none; stroke-width: 1; stroke-dasharray: none; stroke-linecap: butt; stroke-dashoffset: 0; stroke-linejoin: miter; stroke-miterlimit: 4; fill: rgb(176,190,197); fill-rule: nonzero; opacity: 1;"
                            transform=" translate(-21.05, -31)"
                            d="M 23 30.5 L 19.6 33.9 C 19.6 33.9 19.5 34 19.3 34 C 19.2 34 19.2 34 19.1 34 L 20.1 28 L 23 30.5 z"
                            stroke-linecap="round"></path>
                </g>
                <g transform="matrix(1 0 0 1 -1 1.95)">
                    <path
                            style="stroke: none; stroke-width: 1; stroke-dasharray: none; stroke-linecap: butt; stroke-dashoffset: 0; stroke-linejoin: miter; stroke-miterlimit: 4; fill: rgb(207,216,220); fill-rule: nonzero; opacity: 1;"
                            transform=" translate(-23, -25.95)"
                            d="M 29.9 18.2 C 29.7 18 29.4 17.9 29.2 18.099999999999998 L 16 26 C 16 26 18.1 31.9 18.4 32.9 C 18.7 33.9 19 33.9 19 33.9 L 20 27.9 L 29.8 18.799999999999997 C 30 18.7 30.1 18.4 29.9 18.2 z"
                            stroke-linecap="round"></path>
                </g>
            </g>
        </g>
    </g>
</svg>