<?xml version="1.0" encoding="UTF-8"?><svg xmlns="http://www.w3.org/2000/svg" viewBox="0 0 1724.61 332.56"><defs><style>.e{fill:#fff;}.f{fill:#d51e18;}</style></defs><g id="a"/><g id="b"><g id="c"><g><path class="f" d="M116.13,.1C132.27,.02,148.5,.02,164.65,.1c-9.67,34.58-19.18,69.25-28.85,103.92-.57,1.72-.82,3.93,.66,5.33,2.7,2.62,6.64,2.21,10.08,2.21,3.93-.08,8.28,.41,11.88-1.56,2.7-2.05,2.87-5.74,3.85-8.69C171.78,67.55,180.96,33.7,190.54,.02c16.06,.08,32.13,0,48.19,.08-10.16,37.86-20.98,75.56-31.31,113.43-1.88,6.15-2.95,12.78-6.72,18.19-2.62,3.85-6.47,6.72-10.9,8.11-7.62,2.46-15.74,2.7-23.68,2.95-18.77-.08-37.62,.08-56.38,0-8.69-.33-18.28-2.62-23.85-9.83-3.28-3.93-3.77-9.51-2.46-14.34C94.25,79.11,105.31,39.6,116.13,.1M253.32,31.33c3.2-10.41,5.74-20.98,8.85-31.31,34.91,.08,69.74-.08,104.66,.08-2.62,10.49-5.74,20.82-8.61,31.22-34.91,.08-69.91,.08-104.9,0M395.02,3.46C404.04,.18,413.71,.02,423.21,.02c23.6,0,47.29-.08,70.89,.08-3.03,10.33-5.74,20.82-8.77,31.22-17.78,.16-35.57,0-53.35,.08-2.21,.08-4.59,.16-6.56,1.39-2.13,1.64-2.7,4.34-3.36,6.8-5.9,21.64-12.13,43.27-17.95,64.91-1.72,3.93,2.54,7.05,6.06,6.88,19.01,.16,37.95-.08,56.96,.16-3.2,10.33-5.74,20.9-8.85,31.31-25.08-.08-50.16,0-75.23,0-8.11,0-16.72-1.23-23.28-6.39-5.08-3.85-7.95-10.82-6.06-17.05,9.18-33.11,18.36-66.3,27.62-99.41,1.97-7.13,6.56-14.01,13.69-16.55M222.59,142.79c8.03-29.91,16.55-59.74,24.75-89.66,34.99-.08,69.99,0,104.98,0-3.11,10.41-5.74,20.98-8.93,31.39-18.69-.16-37.45,0-56.22-.08-5.65,19.42-10.57,39.09-16.47,58.43-16.06-.16-32.04,0-48.11-.08M0,255.72c1.23-5.25,2.79-10.41,4.18-15.65,69.42-.08,138.83,0,208.25,0-1.48,5.25-2.54,10.74-4.59,15.82-69.25-.33-138.59-.08-207.84-.16H0Z"/><path class="e" d="M105.31,170.9c7.87-1.23,15.82,.33,23.44,2.13-1.15,3.61-2.54,7.13-3.77,10.65-5.74-1.39-11.64-2.21-17.46-2.05-3.93,.08-7.38,2.87-8.36,6.72-2.13,7.21-4.18,14.51-6.15,21.8-.9,2.54-.25,5.9,2.7,6.64,3.93,.9,8.03,.16,11.97-.57,.9-3.2,1.8-6.31,2.7-9.42-2.54,0-5.08,.08-7.7,.08,.9-3.28,1.88-6.56,2.62-9.92,6.39-.33,12.87-.08,19.26-.16-2.62,9.26-4.92,18.6-7.87,27.78-7.7,3.11-16.15,3.93-24.34,3.28-5.08-.49-10.82-2.95-12.21-8.28-1.31-6.31,1.8-12.21,3.11-18.28,1.97-6.47,3.2-13.28,5.9-19.51,2.79-6.39,9.42-10.16,16.15-10.9m310.2-.16c12.7-1.64,25.65-.49,38.03,2.46-1.64,5.25-3.11,10.49-4.92,15.65-7.95-1.88-16.15-2.95-24.26-2.95-3.2,.16-6.97,.25-9.1,2.95-2.05,3.44-3.11,7.46-3.2,11.47,.66,2.29,3.2,3.11,5.25,3.77,7.38,2.29,15.65,3.28,21.72,8.52,4.51,4.02,3.61,10.65,2.38,15.9-2.21,8.36-4.67,17.7-12.13,23.03-7.7,5.25-17.54,5.57-26.55,5.49-8.03-.66-16.23-2.21-23.6-5.49,1.97-4.75,3.77-9.51,5.57-14.26,9.75,3.11,20.24,5.33,30.49,3.44,5.41-1.48,6.72-7.62,7.62-12.38,.74-2.21-.74-4.43-2.79-5.25-7.62-3.36-16.8-3.52-23.28-9.34-4.51-4.1-4.1-10.74-2.95-16.15,1.64-6.72,3.52-13.52,7.54-19.26,3.2-4.75,8.77-6.88,14.18-7.62m68.6,0c12.87-1.72,25.9-.57,38.52,2.38-1.72,5.16-3.28,10.33-4.92,15.57-9.67-1.88-19.67-3.85-29.5-2.29-3.85,.49-5.49,4.51-6.31,7.79-.82,2.87-2.13,7.13,1.48,8.69,8.2,3.52,18.03,3.69,24.91,9.92,4.59,4.67,3.11,11.72,1.64,17.29-2.21,8.77-5.57,18.6-14.26,22.95-8.85,4.34-19.18,4.51-28.77,3.52-6.47-1.07-13.03-2.21-18.93-5.16,1.97-4.67,3.77-9.42,5.57-14.18,9.83,3.11,20.41,5.57,30.65,3.36,5.25-1.56,6.47-7.62,7.46-12.21,.74-2.13-.57-4.34-2.54-5.16-7.79-3.61-17.37-3.61-23.77-9.83-3.93-3.77-3.93-9.83-2.79-14.83,1.56-6.97,3.52-14.1,7.54-20,3.2-4.67,8.61-6.97,14.01-7.79m-415.35,.57c4.1,.08,8.28,.08,12.38,0-5.33,18.6-10.24,37.37-15.65,55.98-4.02-.25-8.11-.16-12.13,0,4.92-18.69,10.24-37.29,15.41-55.98m73.84,0c4.1,.08,8.2,.08,12.29,0-2.05,7.54-4.18,15-6.23,22.54,5.98,.08,11.97-.08,17.95,.08,2.54-7.46,4.1-15.24,6.64-22.7,4.02,.25,8.11,.16,12.13,.08-5.16,18.6-10.33,37.29-15.49,55.89-4.1,.16-8.11,.08-12.21,.16,1.72-7.7,4.26-15.16,5.98-22.78-5.98,.16-12.05,0-18.03,.08-2.29,7.54-4.02,15.24-6.47,22.7-4.02-.25-8.11-.16-12.13-.08,5.25-18.69,10.41-37.37,15.57-55.98m-118.75,0c11.88,0,23.77,.08,35.65,0-.98,3.61-2.05,7.21-3.03,10.9-7.79-.08-15.49,0-23.28-.08-1.15,4.18-2.38,8.28-3.52,12.46,7.21-.08,14.42,0,21.64-.08-1.07,3.61-2.13,7.21-3.03,10.82-7.21-.08-14.34,0-21.47-.08-2.21,7.29-4.1,14.67-6.15,22.05-4.1,.08-8.28,.08-12.38,.08,5.25-18.69,10.33-37.37,15.57-56.06m164.97,10.82c1.15-3.61,2.05-7.21,3.11-10.82,14.26,.08,28.6,.08,42.86,0-1.15,3.61-2.05,7.29-3.2,10.9-5-.16-10.08-.08-15.08-.08-4.18,15-8.44,30-12.46,45.08-4.18,.25-8.36,.16-12.54,.16,4.18-15.08,8.28-30.16,12.54-45.16-5-.16-10.08-.08-15.24-.08m62.94-10.74c11.23-.16,22.46-.08,33.6-.08,7.7,.16,16.88,1.31,21.72,8.11,3.93,5.9,2.13,13.19,.25,19.42-2.62,9.59-4.92,20.73-14.1,26.31-11.8,6.72-25.9,4.18-38.85,4.59-2.54,8.61-4.92,17.21-7.21,25.82-6.31,.08-12.54,0-18.85,.08,7.95-28.03,15.65-56.14,23.44-84.25m14.51,16.31c-2.95,8.61-4.92,17.54-7.46,26.31,6.88-.33,13.85,.49,20.73-.49,6.64-1.48,7.54-9.1,9.1-14.51,1.15-3.52,2.38-9.1-2.21-10.65-6.64-1.31-13.44-.57-20.16-.66m74.58-16.39h25.65c1.15,28.11,2.29,56.3,3.61,84.41-6.64,.08-13.28,0-19.91,0-.08-5.49-.08-11.06-.08-16.55-9.67-.33-19.34-.08-28.93-.16-3.28,5.49-6.23,11.23-9.59,16.72-6.72-.16-13.44-.08-20.16,0,16.64-28.03,32.95-56.3,49.42-84.41m-11.39,52.37c6.8,0,13.6-.08,20.41,0,.08-12.21,.08-24.42,.16-36.63-7.21,11.97-13.6,24.5-20.57,36.63h0Z"/></g></g><g id="d"><g><path class="e" d="M571.81,256.57l43.32-161.48h104.49l5.13-19c.5-1.77,.76-3.42,.76-4.94,0-3.16-.95-6.01-2.85-8.55-2.79-3.67-6.78-5.51-11.97-5.51h-85.49L640.58,.09h118.74c14.44,0,25.39,5.07,32.87,15.2,4.94,6.71,7.41,14.31,7.41,22.8,0,4.56-.7,9.31-2.09,14.25l-16.53,61.74c-3.17,11.91-12.03,21.41-26.6,28.5,8.36,5.45,12.54,12.35,12.54,20.71,0,2.53-.38,5.13-1.14,7.79l-22.99,85.49h-66.49l22.99-85.49c.5-1.77,.76-3.42,.76-4.94,0-3.17-.95-6.01-2.85-8.55-2.79-3.67-6.78-5.51-11.97-5.51h-19l-27.93,104.49h-66.49Z"/><path class="e" d="M834.17,57.09h66.49l-53.38,199.48h-66.49l53.38-199.48ZM849.56,.09h66.49l-10.26,38h-66.49L849.56,.09Z"/><path class="e" d="M1057.4,57.09c14.44,0,25.39,5.07,32.87,15.2,4.94,6.84,7.41,14.57,7.41,23.18,0,4.43-.63,9.06-1.9,13.87l-25.46,94.99c-3.93,14.44-12.35,26.76-25.27,36.95-12.92,10.2-26.6,15.29-41.04,15.29h-52.25l-20.33,75.99h-66.49L938.66,57.09h118.74Zm-85.3,123.49c-.51,1.78-.76,3.42-.76,4.94,0,3.17,.95,5.95,2.85,8.36,2.66,3.8,6.58,5.7,11.78,5.7s10.16-1.87,14.91-5.6c4.75-3.73,7.82-8.2,9.21-13.39l12.73-47.5c.5-1.77,.76-3.42,.76-4.94,0-3.17-.89-6.01-2.66-8.55-2.79-3.67-6.78-5.51-11.97-5.51h-19l-17.86,66.49Z"/><path class="e" d="M1266.38,57.09c14.44,0,25.39,5.07,32.87,15.2,4.94,6.84,7.41,14.57,7.41,23.18,0,4.43-.63,9.06-1.9,13.87l-25.46,94.99c-3.93,14.44-12.35,26.76-25.27,36.95-12.92,10.2-26.6,15.29-41.04,15.29h-52.25l-20.33,75.99h-66.49l73.71-275.47h118.74Zm-85.3,123.49c-.51,1.78-.76,3.42-.76,4.94,0,3.17,.95,5.95,2.85,8.36,2.66,3.8,6.58,5.7,11.78,5.7s10.16-1.87,14.91-5.6c4.75-3.73,7.82-8.2,9.21-13.39l12.73-47.5c.5-1.77,.76-3.42,.76-4.94,0-3.17-.89-6.01-2.66-8.55-2.79-3.67-6.78-5.51-11.97-5.51h-19l-17.86,66.49Z"/><path class="e" d="M1394.43,199.57h75.99l-15.2,56.99h-99.74c-14.44,0-25.4-5.13-32.87-15.39-4.94-6.58-7.41-14.12-7.41-22.61,0-4.56,.69-9.31,2.09-14.25l25.46-94.99c3.8-14.44,12.16-26.75,25.08-36.95,12.92-10.19,26.6-15.29,41.04-15.29h66.49c14.44,0,25.39,5.07,32.87,15.2,4.94,6.84,7.41,14.57,7.41,23.18,0,4.43-.63,9.06-1.9,13.87l-21.66,80.74h-104.49c-.25,1.01-.38,1.9-.38,2.66,0,1.52,.44,2.85,1.33,3.99,1.26,1.9,3.23,2.85,5.89,2.85Zm46.35-66.49c.5-1.77,.76-3.42,.76-4.94,0-3.17-.89-6.01-2.66-8.55-2.79-3.67-6.78-5.51-11.97-5.51s-10.16,1.87-14.91,5.6c-4.75,3.74-7.82,8.2-9.21,13.39h38Z"/><path class="e" d="M1578.71,256.57h-66.49l53.38-199.48h118.74c14.44,0,25.39,5.07,32.87,15.2,4.94,6.84,7.41,14.57,7.41,23.18,0,4.43-.63,9.06-1.9,13.87l-6.46,23.75h-66.49c.5-1.77,.76-3.42,.76-4.94,0-3.17-.89-6.01-2.66-8.55-2.79-3.67-6.78-5.51-11.97-5.51h-19l-38.19,142.49Z"/></g></g></g></svg>