<?xml version="1.0" encoding="UTF-8"?>
<svg id="Layer_2" data-name="Layer 2" xmlns="http://www.w3.org/2000/svg" xmlns:xlink="http://www.w3.org/1999/xlink" viewBox="0 0 1800 580">
  <defs>
    <style>
      .cls-1 {
        fill: #fff;
      }

      .cls-2 {
        fill: #d51e18;
      }

      .cls-3 {
        filter: url(#drop-shadow-1);
      }
    </style>
    <filter id="drop-shadow-1" filterUnits="userSpaceOnUse">
      <feOffset dx="14" dy="19"/>
      <feGaussianBlur result="blur" stdDeviation="16"/>
      <feFlood flood-color="#000" flood-opacity=".71"/>
      <feComposite in2="blur" operator="in"/>
      <feComposite in="SourceGraphic"/>
    </filter>
  </defs>
  <g id="Banner_BG" data-name="Banner BG">
    <rect class="cls-3" x="34.8" y="29" width="1702.41" height="484" rx="94.19" ry="94.19"/>
  </g>
  <g id="UFC_Logo" data-name="UFC Logo">
    <g>
      <path class="cls-2" d="m209.36,120.52c14.65-.07,29.37-.07,44.02,0-8.77,31.38-17.4,62.83-26.17,94.28-.52,1.56-.74,3.57.59,4.83,2.45,2.38,6.02,2.01,9.15,2.01,3.57-.07,7.51.37,10.78-1.41,2.45-1.86,2.6-5.2,3.49-7.88,8.62-30.63,16.95-61.34,25.65-91.9,14.57.07,29.15,0,43.72.07-9.22,34.35-19.03,68.55-28.4,102.9-1.71,5.58-2.68,11.6-6.1,16.51-2.38,3.49-5.87,6.1-9.89,7.36-6.91,2.23-14.28,2.45-21.49,2.68-17.03-.07-34.13.07-51.16,0-7.88-.3-16.58-2.38-21.64-8.92-2.97-3.57-3.42-8.62-2.23-13.01,9.81-35.84,19.85-71.68,29.67-107.51m124.47,28.33c2.9-9.44,5.2-19.03,8.03-28.4,31.67.07,63.27-.07,94.95.07-2.38,9.52-5.2,18.89-7.81,28.33-31.67.07-63.42.07-95.17,0m128.56-25.28c8.18-2.97,16.95-3.12,25.58-3.12,21.41,0,42.9-.07,64.32.07-2.75,9.37-5.2,18.89-7.96,28.33-16.13.15-32.27,0-48.4.07-2.01.07-4.16.15-5.95,1.26-1.93,1.49-2.45,3.94-3.05,6.17-5.35,19.63-11,39.26-16.28,58.89-1.56,3.57,2.3,6.39,5.5,6.25,17.25.15,34.43-.07,51.68.15-2.9,9.37-5.2,18.96-8.03,28.4-22.75-.07-45.5,0-68.26,0-7.36,0-15.17-1.12-21.12-5.8-4.61-3.49-7.21-9.81-5.5-15.47,8.33-30.04,16.66-60.15,25.06-90.19,1.78-6.47,5.95-12.71,12.42-15.02m-156.44,126.4c7.29-27.14,15.02-54.2,22.45-81.34,31.75-.07,63.5,0,95.25,0-2.83,9.44-5.2,19.03-8.1,28.48-16.95-.15-33.98,0-51.01-.07-5.13,17.62-9.59,35.47-14.95,53.01-14.57-.15-29.07,0-43.65-.07m-201.94,102.46c1.12-4.76,2.53-9.44,3.79-14.2,62.98-.07,125.95,0,188.93,0-1.34,4.76-2.3,9.74-4.16,14.35-62.83-.3-125.73-.07-188.56-.15h0Z"/>
      <path class="cls-1" d="m199.54,275.47c7.14-1.12,14.35.3,21.27,1.93-1.04,3.27-2.3,6.47-3.42,9.67-5.2-1.26-10.56-2.01-15.84-1.86-3.57.07-6.69,2.6-7.58,6.1-1.93,6.54-3.79,13.16-5.58,19.78-.82,2.3-.22,5.35,2.45,6.02,3.57.82,7.29.15,10.86-.52.82-2.9,1.64-5.73,2.45-8.55-2.3,0-4.61.07-6.99.07.82-2.97,1.71-5.95,2.38-9,5.8-.3,11.67-.07,17.47-.15-2.38,8.4-4.46,16.88-7.14,25.21-6.99,2.83-14.65,3.57-22.08,2.97-4.61-.45-9.81-2.68-11.08-7.51-1.19-5.73,1.64-11.08,2.83-16.58,1.78-5.87,2.9-12.05,5.35-17.7,2.53-5.8,8.55-9.22,14.65-9.89m281.43-.15c11.52-1.49,23.27-.45,34.5,2.23-1.49,4.76-2.83,9.52-4.46,14.2-7.21-1.71-14.65-2.68-22.01-2.68-2.9.15-6.32.22-8.25,2.68-1.86,3.12-2.83,6.77-2.9,10.41.59,2.08,2.9,2.83,4.76,3.42,6.69,2.08,14.2,2.97,19.7,7.73,4.09,3.64,3.27,9.67,2.16,14.42-2.01,7.58-4.24,16.06-11,20.89-6.99,4.76-15.91,5.06-24.09,4.98-7.29-.59-14.72-2.01-21.41-4.98,1.78-4.31,3.42-8.62,5.06-12.94,8.85,2.83,18.37,4.83,27.66,3.12,4.91-1.34,6.1-6.91,6.91-11.23.67-2.01-.67-4.02-2.53-4.76-6.91-3.05-15.24-3.2-21.12-8.48-4.09-3.72-3.72-9.74-2.68-14.65,1.49-6.1,3.2-12.27,6.84-17.47,2.9-4.31,7.96-6.25,12.86-6.91m62.23,0c11.67-1.56,23.5-.52,34.95,2.16-1.56,4.68-2.97,9.37-4.46,14.13-8.77-1.71-17.84-3.49-26.77-2.08-3.49.45-4.98,4.09-5.73,7.06-.74,2.6-1.93,6.47,1.34,7.88,7.44,3.2,16.36,3.35,22.6,9,4.16,4.24,2.83,10.63,1.49,15.69-2.01,7.96-5.06,16.88-12.94,20.82-8.03,3.94-17.4,4.09-26.1,3.2-5.87-.97-11.82-2.01-17.18-4.68,1.78-4.24,3.42-8.55,5.06-12.86,8.92,2.83,18.51,5.06,27.81,3.05,4.76-1.41,5.87-6.91,6.77-11.08.67-1.93-.52-3.94-2.3-4.68-7.06-3.27-15.76-3.27-21.56-8.92-3.57-3.42-3.57-8.92-2.53-13.46,1.41-6.32,3.2-12.79,6.84-18.14,2.9-4.24,7.81-6.32,12.71-7.06m-376.82.52c3.72.07,7.51.07,11.23,0-4.83,16.88-9.29,33.91-14.2,50.78-3.64-.22-7.36-.15-11,0,4.46-16.95,9.29-33.83,13.98-50.78m66.99,0c3.72.07,7.44.07,11.15,0-1.86,6.84-3.79,13.61-5.65,20.45,5.43.07,10.86-.07,16.28.07,2.3-6.77,3.72-13.83,6.02-20.6,3.64.22,7.36.15,11,.07-4.68,16.88-9.37,33.83-14.05,50.71-3.72.15-7.36.07-11.08.15,1.56-6.99,3.87-13.76,5.43-20.67-5.43.15-10.93,0-16.36.07-2.08,6.84-3.64,13.83-5.87,20.6-3.64-.22-7.36-.15-11-.07,4.76-16.95,9.44-33.91,14.13-50.78m-107.74,0c10.78,0,21.56.07,32.34,0-.89,3.27-1.86,6.54-2.75,9.89-7.06-.07-14.05,0-21.12-.07-1.04,3.79-2.16,7.51-3.2,11.3,6.54-.07,13.09,0,19.63-.07-.97,3.27-1.93,6.54-2.75,9.81-6.54-.07-13.01,0-19.48-.07-2.01,6.62-3.72,13.31-5.58,20-3.72.07-7.51.07-11.23.07,4.76-16.95,9.37-33.91,14.13-50.86m149.67,9.81c1.04-3.27,1.86-6.54,2.83-9.81,12.94.07,25.95.07,38.89,0-1.04,3.27-1.86,6.62-2.9,9.89-4.54-.15-9.15-.07-13.68-.07-3.79,13.61-7.66,27.21-11.3,40.89-3.79.22-7.58.15-11.38.15,3.79-13.68,7.51-27.36,11.38-40.97-4.54-.15-9.15-.07-13.83-.07m57.1-9.74c10.19-.15,20.37-.07,30.48-.07,6.99.15,15.32,1.19,19.7,7.36,3.57,5.35,1.93,11.97.22,17.62-2.38,8.7-4.46,18.81-12.79,23.87-10.71,6.1-23.5,3.79-35.24,4.16-2.3,7.81-4.46,15.61-6.54,23.42-5.73.07-11.38,0-17.1.07,7.21-25.43,14.2-50.93,21.27-76.44m13.16,14.8c-2.68,7.81-4.46,15.91-6.77,23.87,6.25-.3,12.57.45,18.81-.45,6.02-1.34,6.84-8.25,8.25-13.16,1.04-3.2,2.16-8.25-2.01-9.67-6.02-1.19-12.19-.52-18.29-.59m67.66-14.87h23.27c1.04,25.5,2.08,51.08,3.27,76.58-6.02.07-12.05,0-18.07,0-.07-4.98-.07-10.04-.07-15.02-8.77-.3-17.55-.07-26.25-.15-2.97,4.98-5.65,10.19-8.7,15.17-6.1-.15-12.19-.07-18.29,0,15.09-25.43,29.89-51.08,44.84-76.58m-10.34,47.51c6.17,0,12.34-.07,18.51,0,.07-11.08.07-22.16.15-33.24-6.54,10.86-12.34,22.23-18.66,33.24h0Z"/>
    </g>
  </g>
  <g id="Text">
    <g>
      <path class="cls-1" d="m622.77,353.19l39.3-146.51h94.8l4.65-17.24c.46-1.61.69-3.1.69-4.48,0-2.87-.86-5.46-2.59-7.76-2.53-3.33-6.15-5-10.86-5h-77.56l13.96-51.71h107.73c13.1,0,23.04,4.6,29.82,13.79,4.48,6.09,6.72,12.99,6.72,20.68,0,4.14-.63,8.45-1.9,12.93l-15,56.02c-2.87,10.8-10.92,19.42-24.13,25.85,7.58,4.94,11.38,11.2,11.38,18.79,0,2.3-.34,4.65-1.03,7.07l-20.86,77.56h-60.33l20.86-77.56c.46-1.61.69-3.1.69-4.48,0-2.87-.86-5.46-2.59-7.76-2.53-3.33-6.15-5-10.86-5h-17.24l-25.34,94.8h-60.33Z"/>
      <path class="cls-1" d="m860.8,172.22h60.33l-48.43,180.98h-60.33l48.43-180.98Zm13.96-51.71h60.33l-9.31,34.47h-60.33l9.31-34.47Z"/>
      <path class="cls-1" d="m1063.32,172.22c13.1,0,23.04,4.6,29.82,13.79,4.48,6.2,6.72,13.21,6.72,21.03,0,4.02-.58,8.22-1.72,12.58l-23.1,86.18c-3.56,13.1-11.2,24.28-22.92,33.52-11.72,9.25-24.13,13.88-37.23,13.88h-47.4l-18.44,68.94h-60.33l66.88-249.92h107.73Zm-77.39,112.03c-.46,1.61-.69,3.1-.69,4.48,0,2.87.86,5.4,2.59,7.58,2.41,3.45,5.97,5.17,10.69,5.17s9.22-1.69,13.53-5.08c4.31-3.39,7.09-7.44,8.36-12.15l11.55-43.09c.46-1.61.69-3.1.69-4.48,0-2.87-.81-5.46-2.41-7.76-2.53-3.33-6.15-5-10.86-5h-17.24l-16.2,60.33Z"/>
      <path class="cls-1" d="m1252.92,172.22c13.1,0,23.04,4.6,29.82,13.79,4.48,6.2,6.72,13.21,6.72,21.03,0,4.02-.58,8.22-1.72,12.58l-23.1,86.18c-3.56,13.1-11.2,24.28-22.92,33.52-11.72,9.25-24.13,13.88-37.23,13.88h-47.4l-18.44,68.94h-60.33l66.88-249.92h107.73Zm-77.39,112.03c-.46,1.61-.69,3.1-.69,4.48,0,2.87.86,5.4,2.59,7.58,2.41,3.45,5.97,5.17,10.69,5.17s9.22-1.69,13.53-5.08c4.31-3.39,7.09-7.44,8.36-12.15l11.55-43.09c.46-1.61.69-3.1.69-4.48,0-2.87-.81-5.46-2.41-7.76-2.53-3.33-6.15-5-10.86-5h-17.24l-16.2,60.33Z"/>
      <path class="cls-1" d="m1369.09,301.49h68.94l-13.79,51.71h-90.49c-13.1,0-23.04-4.65-29.82-13.96-4.48-5.97-6.72-12.81-6.72-20.51,0-4.14.63-8.45,1.9-12.93l23.1-86.18c3.45-13.1,11.03-24.27,22.75-33.52,11.72-9.25,24.13-13.87,37.23-13.87h60.33c13.1,0,23.04,4.6,29.82,13.79,4.48,6.2,6.72,13.21,6.72,21.03,0,4.02-.58,8.22-1.72,12.58l-19.65,73.25h-94.8c-.23.92-.34,1.72-.34,2.41,0,1.38.4,2.59,1.21,3.62,1.15,1.72,2.93,2.59,5.34,2.59Zm42.06-60.33c.46-1.61.69-3.1.69-4.48,0-2.87-.81-5.46-2.41-7.76-2.53-3.33-6.15-5-10.86-5s-9.22,1.7-13.53,5.08c-4.31,3.39-7.1,7.44-8.36,12.15h34.47Z"/>
      <path class="cls-1" d="m1536.28,353.19h-60.33l48.43-180.98h107.73c13.1,0,23.04,4.6,29.82,13.79,4.48,6.2,6.72,13.21,6.72,21.03,0,4.02-.58,8.22-1.72,12.58l-5.86,21.55h-60.33c.46-1.61.69-3.1.69-4.48,0-2.87-.81-5.46-2.41-7.76-2.53-3.33-6.15-5-10.86-5h-17.24l-34.64,129.27Z"/>
    </g>
  </g>
</svg>